<svg width="25" height="27" viewBox="0 0 25 27" fill="none" xmlns="http://www.w3.org/2000/svg">
<path fill-rule="evenodd" clip-rule="evenodd" d="M4.54586 20.2042C5.02154 20.4588 6.40168 20.9948 6.46868 21.2427L6.48878 26.2139C6.99125 26.1603 7.69472 25.1017 7.99621 24.7667C11.748 20.5392 10.1133 22.2008 15.1314 21.6715C16.4445 21.5308 17.6505 21.3767 18.9368 20.9948C20.384 20.566 21.8378 19.8291 22.615 18.7504C24.8996 15.5613 24.7857 10.1078 24.0353 6.28225C23.5797 3.94405 22.2867 2.32272 20.0892 1.32447C17.5835 0.178818 12.753 -0.243264 9.67784 0.185518C6.75006 0.5942 3.44041 1.60585 2.01337 4.38623C0.747128 6.87182 0.579635 11.6554 1.10891 14.7775C1.4975 17.0621 2.54265 19.1122 4.54586 20.2042ZM8.98107 14.1879C7.40664 12.4996 5.859 10.1547 5.01484 7.87678C4.39177 6.19515 5.24263 4.64752 7.07165 4.20534C7.73492 4.04455 8.12351 4.37953 8.49199 4.75472C8.82027 5.0897 9.15526 5.47829 9.43665 5.87357C9.71804 6.26215 10.0262 6.71103 10.2406 7.12641C11.1518 8.88174 9.78503 8.82144 9.26915 9.6589C8.55899 10.818 10.455 12.9485 11.1853 13.5648C11.7011 13.9936 13.1818 15.0455 13.9924 14.7842C14.448 14.6301 14.6758 14.0606 15.0376 13.7591C16.0359 12.9217 17.1413 13.9333 17.8716 14.4291C18.2937 14.7239 18.6152 14.9785 19.0239 15.3001C19.4326 15.6283 19.8212 16.0035 19.7743 16.5864C19.6872 17.6383 17.9453 19.5812 16.3239 19.0988C15.4999 18.8509 14.2872 18.2077 13.5637 17.7722C11.7748 16.7137 10.3009 15.5881 8.98107 14.1879ZM12.9808 6.53684C12.5922 6.40284 12.6257 5.87357 12.9808 5.77307C13.4565 5.63238 14.7026 6.04776 15.0577 6.21525C16.1967 6.77133 17.1413 7.68249 17.5567 8.90183C17.684 9.28372 18.0592 10.8782 17.5299 11.0256C17.0073 11.1663 17.0207 10.6974 16.9805 10.3222C16.88 9.39091 16.5115 8.26536 15.7947 7.63559C14.7696 6.71773 13.4364 6.69763 12.9808 6.53684ZM13.3828 8.29886C13.2086 8.17827 13.2421 7.87678 13.3627 7.73609C13.6642 7.3944 14.8768 7.60209 15.6272 8.68074C15.9957 9.20332 16.4914 10.5902 15.4396 10.4428C15.0175 9.90009 15.3726 9.18992 14.4346 8.64725C14.113 8.45965 13.5302 8.40606 13.3828 8.29886ZM12.1835 4.57382C12.0629 4.39293 12.1701 4.09145 12.3845 3.99095C12.6324 3.85696 13.8183 4.03785 14.1063 4.10485C16.4445 4.62072 18.354 6.35595 19.2182 8.60035C19.3924 9.04923 20.0088 11.508 19.4125 11.7224C18.7224 11.9703 18.8363 10.9519 18.7693 10.5098C18.6688 9.91349 18.5683 9.50481 18.4009 8.94873C17.5835 6.18175 15.5267 5.2438 12.9473 4.78152C12.7128 4.73462 12.3242 4.78152 12.1835 4.57382Z" fill="#319F1C"/>
</svg>
